/* XPM */
static char *_7cb898ce7ec44829f40df7bedc34363RTLGTXTCQuTHsKTZ[] = {
/* columns rows colors chars-per-pixel */
"32 32 7 1 ",
"  c None",
". c black",
"X c #F54E31",
"o c #3A5080",
"O c #7DA4BA",
"+ c #FCCD94",
"@ c white",
/* pixels */
"                                ",
"                                ",
"        ...............         ",
"        ...............         ",
"     ...ooooooooooooooo...      ",
"     ...ooooooooooooooo...      ",
"     ...ooooooooooooooo...      ",
"        ..ooooooooooooo...      ",
"        ..ooooooooooooo...      ",
"     ...oooooo...oo..oo...      ",
"     ...oooooo...oo..oo...      ",
"   ..ooooo+++++++OO++++...      ",
"   ..ooooo+++++++OO++++...      ",
"   ..ooooo+++++++OO++++...      ",
"     ...oo.............         ",
"     ...oo.............         ",
"        ..ooooooooooooo...      ",
"        ..ooooooooooooo...      ",
"        ..ooooooooooooo...      ",
"        ..oooo+++++oooo...      ",
"        ..oooo+++++oooo...      ",
"        ..@@@@+++++@@@@...      ",
"        ..@@@@+++++@@@@...      ",
"        ..XXXX.....XXXX...      ",
"        ..XXXX.....XXXX...      ",
"        ..XXXX.....XXXX...      ",
"     .........     .........    ",
"     .........     .........    ",
"                                ",
"                                ",
"                                ",
"                                "
};
