/* XPM */
static char *_ce4105063db42b695aa89ae501c3469NxBuBWYpxMymGf2U[] = {
/* columns rows colors chars-per-pixel */
"32 32 31 1 ",
"  c None",
". c black",
"X c #4A0909",
"o c #57190E",
"O c #612510",
"+ c #6B3314",
"@ c #542E2E",
"# c #7A431D",
"$ c #37474F",
"% c #455A64",
"& c #546E7A",
"* c #A65446",
"= c #C77A5D",
"- c #DB9772",
"; c #311B92",
": c #4527A0",
"> c #512DA8",
", c #5E35B1",
"< c #0344A6",
"1 c #005EB0",
"2 c #1976D2",
"3 c #6A40C7",
"4 c #0499C7",
"5 c #00BCD4",
"6 c #1E88E5",
"7 c #42A5F5",
"8 c #64B5F6",
"9 c #20CFE3",
"0 c #E6B581",
"q c #D7C2FF",
"w c white",
/* pixels */
"                                ",
"           .........            ",
"          .oXoXoXoO+.           ",
"         .+OoXoXoXoO+.          ",
"         .O+0000000+O.          ",
"         .0-0-0-0-0-0.          ",
"         .-0-0-0-0-0-.          ",
"         .086q-0-86q0.          ",
"         .-72w=-=72w-.          ",
"         .=*=-##-*=-0.          ",
"          .=*@--@=*=.           ",
"          .*=@@@@*=*.           ",
"           .........            ",
"         ..555---555..          ",
"        .14.555-595.41.         ",
"        .55.5555595.55.         ",
"        .0-.4545454.0-.         ",
"        .*=.5454545.*=.         ",
"        .=*.4141414.=*.         ",
"        .*=.1<1<1<1.*=.         ",
"        ... ....... ...         ",
"            .>:,:>.             ",
"            .,,,,,.             ",
"            .,,3,,.             ",
"           .>33,,,>.            ",
"           .:,,,,,:.            ",
"            .>,>,>.             ",
"            .:;:;:.             ",
"            .;:>:;.             ",
"             .....              ",
"            .&%.$%.             ",
"             .....              "
};
