/* XPM */
static char *_3a00a60d48944919fb12fefbf33c215064768hkCFkLqB72[] = {
/* columns rows colors chars-per-pixel */
"16 32 22 1 ",
"  c None",
". c #565972",
"X c #46465E",
"o c #BA8D5E",
"O c #957350",
"+ c #8D7051",
"@ c #8A6552",
"# c #3A3A50",
"$ c #F6AE9F",
"% c #FFCBB0",
"& c #5A444A",
"* c #E19B9B",
"= c #A2394B",
"- c #6F494D",
"; c #8B8BAB",
": c #FFB893",
"> c #AE4A52",
", c #9DA3B7",
"< c #F69784",
"1 c #787D93",
"2 c #8091A5",
"3 c white",
/* pixels */
"                ",
"                ",
"                ",
"                ",
"                ",
"                ",
"                ",
"                ",
"                ",
"                ",
"    ..XXXXXX    ",
"   .ooooooOOX   ",
"  .ooooooooO+X  ",
"  XooooooooO+X  ",
" XOOooooooOO+@X ",
" #OOOOOOOOO+++# ",
" #+OOO++++++++# ",
" #@++++$%+++++# ",
" #@++$$%%+@++@# ",
" #@+$$%%%+$++@# ",
" #@+%#%%%%#++@# ",
" #@$%&%%%%&+$@# ",
"  X$**$$$$**$X  ",
" #&XXXX..XXXX&# ",
" #&=-=#;;#&=&&# ",
"X:#->-#,,#>->#:X",
"X:<#->#,,#->#<:X",
" X##XX#..#XX##X ",
"   #11111111#   ",
"   #22.XX.22#   ",
"   #&&#  #&&#   ",
"    ##    ##    "
};
