/* XPM */
static char *_446e413b0254855cac93e386f634d6dAKpF2BrWQHX5SvtD[] = {
/* columns rows colors chars-per-pixel */
"24 24 9 1 ",
"  c None",
". c #151123",
"X c #782D18",
"o c #AA5000",
"O c #926A2F",
"+ c #EC6F00",
"@ c #ECB700",
"# c #426097",
"$ c #71E9FB",
/* pixels */
"                        ",
"         ######         ",
"        #......#        ",
"      ###.Xo+o.###      ",
"     #............#     ",
"     #XOOO@@@@OOOX#     ",
"     #............#     ",
"     #.O@O@@@@O@O.#     ",
"     #.O$$$$$$$$O.#     ",
"     #.O$$$$$$$$O.#     ",
"     #.O$$$@@@O@O.#     ",
"     #.O$$$$$$O@O.#     ",
"     #.O$$$$$$O@O.#     ",
"     #.O$$$@@@O@O.#     ",
"     #.O$$$$$$$$O.#     ",
"     #.O$$$$$$$$O.#     ",
"     #.O@O@@@@O@O.#     ",
"     #............#     ",
"     #XOOO@@@@OOOX#     ",
"     #............#     ",
"     ##############     ",
"                        ",
"                        ",
"                        "
};
