/* XPM */
static char *_a53a39a2d914dc1986948fe3d649569Z3moIrERLt9iAeu3[] = {
/* columns rows colors chars-per-pixel */
"32 32 31 1 ",
"  c None",
". c black",
"X c gray16",
"o c #D80000",
"O c #E60000",
"+ c #EA0000",
"@ c #FA0000",
"# c #FE0000",
"$ c red",
"% c #D66400",
"& c #D86500",
"* c #E46B00",
"= c #E66B00",
"- c #FB7500",
"; c #FF7700",
": c #0DC500",
"> c #0DDF00",
", c #0DFF00",
"< c #C5C900",
"1 c #D7DC00",
"2 c #F2FA00",
"3 c #F3FA00",
"4 c #F7FF00",
"5 c #0C00BC",
"6 c #5700A9",
"7 c #6200BD",
"8 c #0E00DA",
"9 c #1100FF",
"0 c #7200DB",
"q c #8100F9",
"w c #8400FF",
/* pixels */
"                                ",
"                                ",
"        .X.                     ",
"        ... .....               ",
"         ..+#####..             ",
"         .oO@;;####..   .#      ",
"         .&*-;;;;;########      ",
"         .%*344;;;;;#####;      ",
"         X<1344444;;;;;;;.      ",
"         X:>,,,,444444444.      ",
"         X58999,,,,,44444.      ",
"         X589999,,,,,,,,,       ",
"         .670qww999999,,,       ",
"         .       www9999.       ",
"         .       .wwwwww        ",
"         .         ....         ",
"         .                      ",
"         .                      ",
"         .                      ",
"         .                      ",
"         .                      ",
"         .                      ",
"         .                      ",
"         .                      ",
"         .                      ",
"         .                      ",
"         .                      ",
"         X                      ",
"         X                      ",
"         X                      ",
"                                ",
"                                "
};
