/* XPM */
static char *_a5883c9b2da4aa6c71ecb73d9c87778w0S0w0VNIhq5LuEn[] = {
/* columns rows colors chars-per-pixel */
"44 37 10 1 ",
"  c None",
". c #151123",
"X c #302F4F",
"o c #0C5640",
"O c #107759",
"+ c #535689",
"@ c #2ECF83",
"# c #828AAE",
"$ c #9AAFCA",
"% c #E8F2FF",
/* pixels */
"                                            ",
"           %%%$$$$$$$$$$$$$$.               ",
"           %XXXXooooooooXXX$..              ",
"           %XooO@O@@OO@OOoX%...             ",
"           $XXXoooooooooXXX%. ..            ",
"           $$$$$$$$$$$$$%%%%.  ..           ",
"              X.        X.      ..          ",
"         ####$$$$%%%%%%$$$$$$$XX++++XX      ",
"         +++++++++++++++++++++........      ",
"         #$$$$$$$$$$$$$$$$$$$$XXXXXXXX      ",
"         #$$$XoOoO@OoOOOoX$$$$XX$$$$$%%%+++.",
"         $$$XoooooooooooooX$$$XX$$$$$$%%+XXX",
"         $$$XoOO@@O@@O@@Ooo$$$XXX++++X$%XXXX",
"         XX#XoooOoooooooooo#XX..$$$$$$$$XXXX",
"         ++$XO@@O@ooO@OO@oO$++XX$XXXX$++....",
"         ++$XooooooOOOooooo$++XX$o@@o$+$XXXX",
"         #$$Xo@OO@O@OO@@OOo$$$XX$.OO.$++....",
"         #$$Xoooooooooooooo$$$XX$XXXX$+$XXXX",
"         #$$XO@o@@OOOoO@@oo$$#XX%$$$$$++....",
"         #$$XoOOooooooooooo$$#XX%%XXXX$$XXXX",
"         XX$Xo@@OOOoO@O@@oo$XX..%%%$$$$$XXX.",
"         ++$XoooooooooooooX$++XXXXX.....    ",
"    $$$$##$$$XXXXXXXXXXXXX####XXXXXX...     ",
"   $$$##X#$$$$$$$$$$$$$$$#####X.X.XX...     ",
"  $$$##X....XXXXXXXXXXXXXXXXXX.........     ",
" $%%%$$.....##############XX...........     ",
" ######...++#+XXXXXXXXXX+#X++XXXXXXX...     ",
" ######....X#X$$$$$$$$$$X#X....X..X...      ",
" XXXXXX.....+X#$#$#$#$#$X+XX..........      ",
" ++##++.....#XX#X#X#X#X#X#X++XXXXXXX..      ",
" #....#...++#++++++++++++#X....X..X...      ",
" ++##++.....++++++++++++++XX..........      ",
" #....#....XX..X.....XX..X............      ",
" ++##++..$$$++.$$+.$$+.$+X.$$$++++++++      ",
" #....#..###+X.##X.##X.#XXX###XXXXXXXX      ",
" ++++++....XXX.XXX.XXX.XXXX...........      ",
"#$$$$$#..#####################XXXXXXXX      "
};
