/* XPM */
static char *_bd79f8d2be04553b45e095527d73edb[] = {
/* columns rows colors chars-per-pixel */
"32 32 7 1 ",
"  c #593D29",
". c #79553A",
"X c #745844",
"o c #6C6C6C",
"O c #966C4A",
"+ c #B9855C",
"@ c gray53",
/* pixels */
"++OOOO....++OOOO....  ....++..++",
"++OOOO....++OOOO....  ....++..++",
"..OO  ....OO@@  ..++OO..++OO    ",
"..OO  ....OO@@  ..++OO..++OO    ",
"++....  ++......++......    ++OO",
"++....  ++......++......    ++OO",
"OOoo++..OO  ..++OOOO..OO..++OO..",
"OOoo++..OO  ..++OOOO..OO..++OO..",
"OO..OO++  OO....OO  ..oo..OO  ..",
"OO..OO++  OO....OO  ..oo..OO  ..",
"..  OOOO..OO      ....  ......++",
"..  OOOO..OO      ....  ......++",
"++......@@....++++..++++..OO..OO",
"++......@@....++++..++++..OO..OO",
"....++++OOOO....OO  OOOO....OOOO",
"....++++OOOO....OO  OOOO....OOOO",
"OO....OO..OO..  ..OOOO......  ..",
"OO....OO..OO..  ..OOOO......  ..",
"..OO  ....    ..........++++..OO",
"..OO  ....    ..........++++..OO",
"..OO..++++..++OO  ++++  OOOO@@..",
"..OO..++++..++OO  ++++  OOOO@@..",
"OO....OOOO++..OOooOOOO..  OO..  ",
"OO....OOOO++..OOooOOOO..  OO..  ",
"..  OO..OOOO++..............++++",
"..  OO..OOOO++..............++++",
"..OO....XX..OOOO..  ++  ..++OOOO",
"..OO....XX..OOOO..  ++  ..++OOOO",
"OO..  ++..  ..  ++++..OO....OOOO",
"OO..  ++..  ..  ++++..OO....OOOO",
"OO..++OOOO..@@..OOOO....OOOO..  ",
"OO..++OOOO..@@..OOOO....OOOO..  "
};
