/* XPM */
static char *_4021a28c78643c1acb233e51a749a3fOFRezraMka0yAHeT[] = {
/* columns rows colors chars-per-pixel */
"32 32 6 1 ",
"  c None",
". c black",
"X c #37474F",
"o c #008000",
"O c #4CAF50",
"+ c #CDDC39",
/* pixels */
"              +OOO              ",
"              +OOOOOO           ",
"       XXXXXXX+OOOOOOOOX        ",
"       XXXXXXX+OOOOOOOOX        ",
"       XX.....+OOooOOOOX        ",
"       XX.....+OOoOooOOX        ",
"       XX.....+OOoOoO+OX        ",
"       XX.....+OOoOoO+OX        ",
"       XX.....+OOoOoO++X        ",
"       XX.....+OOoOoO+oX        ",
"       XX.....+OOoOoO+oX        ",
"       XX.....+OOoOoO+oX        ",
"       XX.....+OOoOoO+OX        ",
"       XX.....+OOoOoO+OX        ",
"       XX.....+OOoOoO+OX        ",
"       XX.....+OOO++O+OX        ",
"       XX.....+OOOOO++OX        ",
"       XX.....+OOOOOOOOX        ",
"       XX.....+OOOOOOOOX        ",
"       XX.....+OOOOOOOOX        ",
"       XX.....+OOOOOOOOX        ",
"       XX.....+OOOOOo+OX        ",
"       XX.....+OOOooO+OX        ",
"       XX.....+OOoOoO+OX        ",
"       XX.....+OOoOoO+OX        ",
"       XX.....+OOoOoO+OX        ",
"       XX.....+OOoOoO++X        ",
"       XX.....+OOoOoO+oX        ",
"       XX.....+OOoOoO+oX        ",
"       XX.....+OOoOoO+oX        ",
"       XX.....+OOoOoO+OX        ",
"       XX.....+OOoOoO+OX        "
};
