/* XPM */
static char *_c3979ea163548c7badc72bd48a1d311zrIcPPXboax3Hf2O[] = {
/* columns rows colors chars-per-pixel */
"32 32 28 1 ",
"  c None",
". c #2F3699",
"X c #1E64B7",
"o c #4950A6",
"O c #4A50A6",
"+ c #4852A7",
"@ c #4755AA",
"# c #455EB0",
"$ c #6167B1",
"% c #3B78C0",
"& c #00B7EF",
"* c #21C0F1",
"= c #3EC8F3",
"- c #B6B8DB",
"; c #BFC1E0",
": c #B0C8E6",
"> c #BACFE9",
", c #A5E6F9",
"< c #B1E9FA",
"1 c #BBECFB",
"2 c #CFD1E8",
"3 c #DFF6FD",
"4 c #E3F7FD",
"5 c #E7F8FD",
"6 c #F4FCFE",
"7 c #F7FDFE",
"8 c #FBFEFF",
"9 c white",
/* pixels */
".....OOO.....OOO..O@@OOO..OOOOOO",
".....OOO.....O$$O.O##O$$O.OOOOOO",
".....:>;O...XX$$$.O%%-;;O.#OO...",
"&&&&&,<<*&&&&&===&,,,,<<*&&.....",
"&=&&=,<<*&&&&&<<<&,,,,,,&&&&&&&&",
"&3=== 9999999999,&,99 &&99999199",
"&&998 9999999999,&&  99999999,99",
"&&&99 992  &    &9999999999993  ",
"&&&&3   999999:,,999996999   &&&",
"&&&&&333399999,,<=345&9993&333&&",
"&&&&&&&&&33333,,,3&99993&333&,,,",
"&&&&&&&&&&&&&,,,&9993&&&33,,,,,,",
"&&&&&&&&&&&&&,,,&&&&&366,&,,,,,,",
"&&&&&&&&&&&&&&,,,&&,3*,,<&,,,&&&",
"&&&&&&&&&&&&&&,,,&&&&,,,,&&&&&&&",
"&&&&&&&&&&&&&&,,,&&&&&99,&&&&&&&",
"&&&&&&&&&&&&&&&&&&&&&&&&&&&&&&&&",
"&&&&&&&&&&&&&&&&&&&&&&&&,&&&&&&&",
"&&&&&&&&&&&&&&&&&&&&&&&&&&&&&&&&",
"&&&&&&&&&&&&&&&&&&&&&&&&&&&&&&&&",
"&&&&&&&&&&&&&&&&&&&&&&&&&&&&&&&&",
"&&&&&&&&&&&&&&&&&&&&&&&&&&&&&&&&",
"&&&&&&&&&&&&&&&&&&&&&&&&&&&&&&&&",
"&&&&&&&&&&&&&&&&&&&&&&&&&&&&&&&&",
"&&&&&&&&&&&&&&&&&&&&&&&&&&&&&&&&",
"&&&&&&&&&&&&&&&&&&&&&&&&&&&&&&&&",
"&&&&&&&&&&&&&&&&&&&&&&&&&&&&&&&&",
"&&&&&&&&&&&&&&&&&&&&&&&&&&&&&&&&",
"&&&&&&&&&&&&&&&&&&&&&&&&&&&&&&&&",
"&&&&&&&&&&&&&&&&&&&&&&&&&&&&&&&&",
"&&&&&&&&&&&&&&&&&&&&&&&&&&&&&&&&",
"&&&&&&&&&&&&&&&&&&&&&&&&&&&&&&&&"
};
