/* XPM */
static char *_6c1da3e8fc14ac9fced7d2a9902582cHQdLcohPjZHWkFFt[] = {
/* columns rows colors chars-per-pixel */
"32 32 12 1 ",
"  c #3D1C12",
". c #313131",
"X c #353535",
"o c #5C3429",
"O c #7D3F2B",
"+ c #296E2B",
"@ c gray25",
"# c gray29",
"$ c gray34",
"% c #965E33",
"& c #0DA112",
"* c #2C9430",
/* pixels */
"+***++*&&+&&&**+++&**+++@@@@@@@@",
"+++&&&*  &+++**&&&+&&&&+X@@@@@@@",
"+++&&&*  &+++**&&&+&&&&+.X@@@@@@",
"&  *++&  &  ***+&& ++++ $.X@@@XX",
" ## ++&  &  ***+&& ++++ @.XXXX..",
" ##   &     +  &  o    o@......$",
"OooOO% OOooo    ##oOO  oX.$$$$$@",
"o  OOOoOOooo    ##oOO  o...X@@@@",
"o  OOOooO    ooo  ooooo%$$$.X@@@",
"%  ooo##oo%%%oo%%%oOOooO@@@$.X@@",
"%oo%%%OOOo%%%oo%%%oOOooO@@@@$.XX",
"%oo%%%OOOoooO  OOOoooOOO@@@@@...",
"OooooOooOoo oOOOooooo  o@@@@..$@",
"OOO  ooo   ooOOOooooo  o@@@@.$@@",
"OOO  ooo   ooooooo%%%ooO@@@@.@@@",
"OOOoo%%%o%%O  %%ooOOO##o@@@X.X@@",
"OooooOOO%ooO##OOooOOO##oX@X.X@@$",
"OooooOOO%ooO##OOOo OOoo .X.XXX@$",
"o  OOoOOO%%oooooooooo%%%..@...XX",
"oOOooo  oOOOoo %% ooo%%%$..$$$..",
"oOOooo  oOOOoo %% oo%OOO@$.@@@$.",
"Ooo  %oo oo ooooo oooOOO@@.@@@@$",
"Ooo  %oo oo ooooo oooOOO@@.@@@@@",
"OOo%%OOOo##OOOOoooOOOoo @@...@@@",
"@@@$...$..@@@@@@@@X.@@@@@X.$$.@@",
"@@@.$$$@$.XX@@@@@X..@@@@X..$@$.@",
"@@@.@@@@@@..XXXXX..@@@@X..$@@@$.",
".....X@@@@@.......@@@@X..$@@@X.$",
"$$$$..XX@@XX...$..XXXX..$@@@X.$@",
"@@@@$...XX....$@$......$@@@X.$@@",
"@@@@@$$....@@.@@@@..@@@@@@X.$@@@",
"@@@.@@@@@@@@@.@@@@@..@@@@@.@@@@@"
};
