/* XPM */
static char *result[] = {
/* columns rows colors chars-per-pixel */
"29 38 5 1 ",
"  c #151123",
". c #0D2E31",
"X c #1E434C",
"o c #295B67",
"O c None",
/* pixels */
"OOOOOOOOOOOOOOOOOOOOOOOOOOOOO",
"OOOOOOOOOOOOOOOOOOOOOOOOOOOOO",
"                             ",
"                             ",
"                     .       ",
"                .   .   ..   ",
"           ..   ....  ....   ",
"          ... .....  .....   ",
"         ....... .   .....   ",
"               ..     ...    ",
"                ...   ..     ",
"        .XX.   ...X.  .      ",
"       .XX..  ...XX.         ",
"     .XXX. XX..Xoo... ...    ",
"      .XX XXX... ... ....    ",
"   ... .X XX.ooX...  ...     ",
"   ...  X ..ooXX..XXX .      ",
"  ...  X. .oooX..XXXX        ",
" ..   XXX  ooX...XXo....     ",
"      ooX  XXX. .oo.....     ",
"     .oX.  ...   ....        ",
"      X...    ..  ...   .    ",
"      .... .XX...      ..    ",
"      ...  XXXo..     .      ",
"     ..  . Xooo.. XX.        ",
"     .   ...... XXXX..       ",
"         . ..   XXoo.        ",
"        .   .   .....        ",
"                 ...         ",
"                             ",
"                             ",
"                             ",
"                             ",
"                             ",
"OOOOOOOOOOOOOOOOOOOOOOOOOOOOO",
"OOOOOOOOOOOOOOOOOOOOOOOOOOOOO",
"OOOOOOOOOOOOOOOOOOOOOOOOOOOOO",
"OOOOOOOOOOOOOOOOOOOOOOOOOOOOO"
};
