/* XPM */
static char *_be625c925ea468aac989cc3c96ea351[] = {
/* columns rows colors chars-per-pixel */
"32 32 10 1 ",
"  c None",
". c #540054",
"X c #CC00CC",
"o c #FA00FA",
"O c magenta",
"+ c #FF66FF",
"@ c #FF8FFF",
"# c #FFD4FF",
"$ c #FFE6FF",
"% c white",
/* pixels */
"                                ",
"                                ",
"                                ",
"                                ",
"                                ",
"                                ",
"                                ",
"                                ",
"                                ",
"            .......             ",
"           .%%%####.            ",
"          .%%###@@%+.           ",
"          .%#%@@@%++.           ",
"          .@##%%%++@.           ",
"          .@#%ooX%O@.           ",
"          .@@$oXX$O@.           ",
"          .@@%XXo%O@.           ",
"          .@@$Xoo$O@.           ",
"          .@@$oo+$O@.           ",
"          .@$@$$$@$@.           ",
"          .$@@@@@@@$.           ",
"           .#######.            ",
"            .......             ",
"                                ",
"                                ",
"                                ",
"                                ",
"                                ",
"                                ",
"                                ",
"                                ",
"                                "
};
