/* XPM */
static char *_9483df5556c4d2bec6233745d1817e4RFOTxtVkaNtuvttt[] = {
/* columns rows colors chars-per-pixel */
"18 18 10 1 ",
"  c None",
". c #151123",
"X c #302F4F",
"o c #0C5640",
"O c #107759",
"+ c #535689",
"@ c #2ECF83",
"# c #828AAE",
"$ c #9AAFCA",
"% c #E8F2FF",
/* pixels */
"   $##++++#...... ",
"  $#Xooooo+#++XXXX",
"  #XoOOoOOo+......",
"  #Xo@@O@Oo+++XXXX",
"  +Xooooooo+XXXXXX",
"  +XoO@OO@o+......",
"  ++Xooooo++.+X+X.",
"  ++######++.X.X..",
"  +X.++++.X+......",
"  ##X.....##X.....",
" ##X.+.+.#$X......",
" #X.+.+.#$X...... ",
"$$$$$$$$%+......  ",
"++++++++++.....   ",
"+.......++.+++.   ",
"+.#####.++.XXX.   ",
"+.+++++.++.X...   ",
"+.+++++.++.....   "
};
