/* XPM */
static char *result[] = {
/* columns rows colors chars-per-pixel */
"65 35 7 1 ",
"  c #151123",
". c #002A3E",
"X c #233D6D",
"o c #056592",
"O c #0083B7",
"+ c #21B6FB",
"@ c None",
/* pixels */
"@@@@@@@@@@@@@@@@@@@@@@@@@@@@@@@@@@@@@@@@@@@@@@@@@@@@@@@@@@@@@@@@@",
"@++++++++++O+OOO++++o++++++O++++o++++++++o++O+O+++++o++++++O++++o",
"@++O+OO+OoooOOO+++++.+OOOOOOOOOO.++OOoO++.+OOOOOOO++.+OOOOOOOO+O.",
"@+OOOOOOOOooooOOO+++.+OOoOOOOOOO.+OoOooO+.++OOOOOO++.+OOOOOOOOOO.",
"@OOooXXXXXXXXXoOOOO+.+OOoOoooooO.OoOoXooO.+OoooooOO+.OOOOoXXooOO.",
"@Ooo OOOOOooOo..XXoO OoooooXoooOoOOXXXXXO.OooXXXXXoO OOoXXXXXXoOo",
"@ooXoOOOOoOOOoX.XXXo oXXXXXXXXoO.OXXXXXXo OoXXXXXXXo OoXXXXXXXXO.",
"@oXX o++OOOoXX..XXXo OOOooOO..Xo.OXOooOOO OXXXXXXXXo OoXoooo..Xo.",
"@oXX.ooo++oXXX..XXXo OXXXXXXXXXX.XOoXXXXO oXXXXXXXXo oXooXXX.XXX.",
"@oXX.XoooOXXX.X.XXXX oXXXX.......XoXXXXXo XoOOOoOXXX o.XXX.......",
"@XXX..ooo+XXX.X XOOOOOooX..Xooo..XoXXXX.o .oXXXX.OXX o.XX..Xooo..",
"@    .XooOXXX.  .Oooooo.X.....XX.XX...Xoo oo......   X..X.....XX.",
"@ ooXo....... XXXOoooo .... ...X X......o oo.....Xo  X. ... ...X ",
"@ oXXXXX     XXXXooo......   ..X X......X oXX.....X  ..X..   ..X ",
"@ oXXXXoooXXXXXXXo ......     .X  ....... oX......X   . .     .X ",
"@ oXXXoooXXXXX.XX.......          .......  ........           .X ",
"@ XXXoXXXXX..XoXX..OOOOOOooOooooX   Xoooo XX..  ...   ooXXXXX .. ",
"@ oXo.XXXXX...XXX..OoooXXXoXooXXX  X....XX.... X...  XX...XXXXX  ",
"@ oXX.XX.XXXooXXX..oooXXXXXXXX..X  X......X........  X........XX.",
"@ o....X.XX...XX.. oXoXooXoXXX..X  X......X ......   X....... .X.",
"@ X.. ..XXX....... XXXXXX...XXX.X  X   ...X  ....  ooX. ..     X.",
"@ X  X....         oX.OoOooooXX..        .X.  .   oXXX  .      ..",
"@           XXXXX. XX.OXXXXXXXX..         ..     XX..X     XXXX..",
"@ .XXXXXXX. ...... oX.oXXXXXXX...         .    XXX.. .     X....X",
"@ XX.....X oooXoX. X..oXX  ......     ....... X  .        ....  X",
"@ X.. .... XXXXXX.    o X            ..     . X   .....   ...   X",
"@ X..   .. X......    o             ..      .    ...   .  X     X",
"@ ..    .. X .....                          ..  ..     .         ",
"@  .       .  ...                            .  .      .         ",
"@  .       .                                    .                ",
"@          .                                                     ",
"@                                                                ",
"@                                                                ",
"@@@@@@@@@@@@@@@@@@@@@@@@@@@@@@@@@@@@@@@@@@@@@@@@@@@@@@@@@@@@@@@@@",
"@@@@@@@@@@@@@@@@@@@@@@@@@@@@@@@@@@@@@@@@@@@@@@@@@@@@@@@@@@@@@@@@@"
};
